<svg width="95" height="70" viewBox="0 0 95 70" fill="none" xmlns="http://www.w3.org/2000/svg">
<path d="M57.8446 24.3108C60.7928 18.4144 69.2072 18.4144 72.1554 24.3108L89.2111 58.4223C91.8708 63.7415 88.0028 70 82.0557 70H47.9443C41.9972 70 38.1293 63.7415 40.7889 58.4223L57.8446 24.3108Z" fill="url(#paint0_linear_187_40)"/>
<path d="M27.8446 14.3108C30.7928 8.41444 39.2072 8.41445 42.1554 14.3108L64.2111 58.4223C66.8708 63.7415 63.0028 70 57.0557 70H12.9443C6.99722 70 3.12925 63.7415 5.78885 58.4223L27.8446 14.3108Z" fill="url(#paint1_linear_187_40)"/>
<defs>
<linearGradient id="paint0_linear_187_40" x1="65" y1="20.5" x2="65" y2="70" gradientUnits="userSpaceOnUse">
<stop stop-color="#FF5CD1"/>
<stop offset="1" stop-color="#F33C52"/>
</linearGradient>
<linearGradient id="paint1_linear_187_40" x1="35" y1="20.5" x2="35" y2="70" gradientUnits="userSpaceOnUse">
<stop stop-color="#CB5BFF"/>
<stop offset="1" stop-color="#994EDA"/>
</linearGradient>
</defs>
</svg>
