<svg width="48" height="48" viewBox="0 0 48 48" fill="none" xmlns="http://www.w3.org/2000/svg">
<path d="M40.3977 7.59187C38.2653 5.44867 35.7254 3.74939 32.9261 2.59314C30.1267 1.43689 27.124 0.846809 24.0931 0.857316C11.3936 0.857316 1.04325 11.1559 1.04325 23.7918C1.04325 27.8418 2.11317 31.7761 4.11346 35.2475L0.857178 47.1429L13.0682 43.9492C16.4408 45.7775 20.232 46.7495 24.0931 46.7495C36.7926 46.7495 47.1429 36.4509 47.1429 23.815C47.1429 17.6821 44.7472 11.9196 40.3977 7.59187ZM24.0931 42.8615C20.6507 42.8615 17.2781 41.9358 14.3242 40.2001L13.6265 39.7835L6.3696 41.6812L8.30011 34.6458L7.83492 33.9284C5.92243 30.8896 4.90692 27.3772 4.90427 23.7918C4.90427 13.285 13.5102 4.72216 24.0698 4.72216C29.1868 4.72216 34.0015 6.71244 37.6066 10.3227C39.3917 12.0907 40.8064 14.1937 41.7686 16.5098C42.7308 18.8258 43.2215 21.3088 43.2121 23.815C43.2586 34.3218 34.6527 42.8615 24.0931 42.8615ZM34.6062 28.6055C34.0247 28.3278 31.1871 26.9392 30.6754 26.731C30.1404 26.5458 29.7683 26.4532 29.3729 27.0087C28.9775 27.5872 27.8843 28.8832 27.5587 29.2535C27.2331 29.6469 26.8842 29.6932 26.3027 29.3924C25.7212 29.1147 23.8605 28.4898 21.6741 26.5458C19.9529 25.0184 18.8132 23.1438 18.4644 22.5653C18.1387 21.9867 18.4178 21.6858 18.7202 21.385C18.9761 21.1304 19.3017 20.7138 19.5808 20.3898C19.8599 20.0658 19.9762 19.8113 20.1623 19.441C20.3483 19.0475 20.2553 18.7235 20.1158 18.4458C19.9762 18.1681 18.8132 15.3447 18.3481 14.1876C17.8829 13.0767 17.3944 13.2156 17.0455 13.1924H15.9291C15.5337 13.1924 14.929 13.3313 14.394 13.9098C13.8823 14.4884 12.3937 15.877 12.3937 18.7004C12.3937 21.5238 14.4638 24.2547 14.7429 24.625C15.022 25.0184 18.8132 30.8041 24.5815 33.2804C25.9538 33.8821 27.0237 34.2292 27.8611 34.4838C29.2333 34.9235 30.4893 34.8541 31.4895 34.7152C32.6059 34.5532 34.9086 33.3266 35.3738 31.9844C35.8622 30.6421 35.8622 29.5081 35.6994 29.2535C35.5366 28.9989 35.1877 28.8832 34.6062 28.6055Z" fill="#61FFB3"/>
</svg>
