<svg width="25" height="25" viewBox="0 0 25 25" fill="none" xmlns="http://www.w3.org/2000/svg">
<path d="M21.6485 3.35155C21.543 3.24661 21.4098 3.17395 21.2645 3.14212C21.1192 3.11029 20.9678 3.12061 20.8282 3.17186L3.64066 9.42186C3.49243 9.47809 3.36481 9.57807 3.27476 9.70855C3.1847 9.83902 3.13647 9.9938 3.13647 10.1523C3.13647 10.3109 3.1847 10.4656 3.27476 10.5961C3.36481 10.7266 3.49243 10.8266 3.64066 10.8828L10.3516 13.5625L15.8555 9.14452L11.4297 14.6719L14.1172 21.3828C14.1751 21.5282 14.2753 21.6528 14.4049 21.7405C14.5344 21.8283 14.6873 21.8751 14.8438 21.875C15.0017 21.8717 15.1549 21.8207 15.2832 21.7287C15.4115 21.6366 15.5089 21.5079 15.5625 21.3594L21.8125 4.17186C21.8658 4.03364 21.8786 3.88314 21.8495 3.7379C21.8205 3.59266 21.7508 3.45867 21.6485 3.35155Z" fill="black"/>
</svg>
