<svg width="28" height="29" viewBox="0 0 28 29" fill="none" xmlns="http://www.w3.org/2000/svg">
<path d="M4.66663 11H23.3333L22.3591 21.7112C22.3064 22.2909 22.039 22.83 21.6092 23.2226C21.1794 23.6153 20.6184 23.8331 20.0363 23.8333H7.96363C7.3815 23.8331 6.82049 23.6153 6.39072 23.2226C5.96095 22.83 5.69347 22.2909 5.64079 21.7112L4.66663 11Z" stroke="black" stroke-width="3" stroke-linejoin="round"/>
<path d="M9.33337 13.3333V9.83329C9.33337 8.59562 9.82504 7.40863 10.7002 6.53346C11.5754 5.65829 12.7624 5.16663 14 5.16663C15.2377 5.16663 16.4247 5.65829 17.2999 6.53346C18.175 7.40863 18.6667 8.59562 18.6667 9.83329V13.3333" stroke="black" stroke-width="3" stroke-linecap="round"/>
</svg>
