<svg width="28" height="29" viewBox="0 0 28 29" fill="none" xmlns="http://www.w3.org/2000/svg">
<path d="M22.1667 16.8334H5.83333C4.54467 16.8334 3.5 17.878 3.5 19.1667V22.6667C3.5 23.9554 4.54467 25 5.83333 25H22.1667C23.4553 25 24.5 23.9554 24.5 22.6667V19.1667C24.5 17.878 23.4553 16.8334 22.1667 16.8334Z" stroke="white" stroke-width="3"/>
<path d="M11.6667 4.58337H5.83333C5.21449 4.58337 4.621 4.82921 4.18342 5.26679C3.74583 5.70438 3.5 6.29787 3.5 6.91671V10.4167C3.5 11.0355 3.74583 11.629 4.18342 12.0666C4.621 12.5042 5.21449 12.75 5.83333 12.75H11.6667" stroke="white" stroke-width="3" stroke-linecap="round"/>
<path d="M19.8334 13.3333C22.4107 13.3333 24.5001 11.244 24.5001 8.66667C24.5001 6.08934 22.4107 4 19.8334 4C17.2561 4 15.1667 6.08934 15.1667 8.66667C15.1667 11.244 17.2561 13.3333 19.8334 13.3333Z" stroke="white" stroke-width="3"/>
</svg>
