<svg width="23" height="23" viewBox="0 0 23 23" fill="none" xmlns="http://www.w3.org/2000/svg">
<g clip-path="url(#clip0_147_59)">
<path d="M22.1389 11.1684C22.1076 11.0976 21.3494 9.41559 19.6637 7.72996C17.4177 5.48395 14.5809 4.29694 11.4585 4.29694C8.33609 4.29694 5.49926 5.48395 3.25325 7.72996C1.56762 9.41559 0.805818 11.1003 0.778068 11.1684C0.737349 11.2599 0.716309 11.3591 0.716309 11.4593C0.716309 11.5595 0.737349 11.6586 0.778068 11.7502C0.809399 11.8209 1.56762 13.5021 3.25325 15.1877C5.49926 17.4328 8.33609 18.6199 11.4585 18.6199C14.5809 18.6199 17.4177 17.4328 19.6637 15.1877C21.3494 13.5021 22.1076 11.8209 22.1389 11.7502C22.1796 11.6586 22.2007 11.5595 22.2007 11.4593C22.2007 11.3591 22.1796 11.2599 22.1389 11.1684ZM11.4585 15.0391C10.7503 15.0391 10.058 14.8291 9.46914 14.4357C8.88029 14.0422 8.42134 13.483 8.15033 12.8287C7.87931 12.1744 7.8084 11.4544 7.94656 10.7598C8.08472 10.0652 8.42576 9.42721 8.92653 8.92644C9.4273 8.42566 10.0653 8.08463 10.7599 7.94647C11.4545 7.8083 12.1745 7.87921 12.8288 8.15023C13.4831 8.42125 14.0423 8.8802 14.4358 9.46905C14.8292 10.0579 15.0392 10.7502 15.0392 11.4584C15.0392 12.4081 14.662 13.3188 13.9904 13.9904C13.3189 14.6619 12.4082 15.0391 11.4585 15.0391Z" fill="white"/>
</g>
<defs>
<clipPath id="clip0_147_59">
<rect width="22.9167" height="22.9167" fill="white"/>
</clipPath>
</defs>
</svg>
