<svg width="27" height="27" viewBox="0 0 27 27" fill="none" xmlns="http://www.w3.org/2000/svg">
<path d="M2.26256 21.2626C1.57915 21.946 1.57915 23.054 2.26256 23.7374C2.94598 24.4209 4.05402 24.4209 4.73744 23.7374L2.26256 21.2626ZM21.25 6.5C21.25 5.5335 20.4665 4.75 19.5 4.75L3.75 4.75C2.7835 4.75 2 5.5335 2 6.5C2 7.4665 2.7835 8.25 3.75 8.25L17.75 8.25L17.75 22.25C17.75 23.2165 18.5335 24 19.5 24C20.4665 24 21.25 23.2165 21.25 22.25L21.25 6.5ZM4.73744 23.7374L20.7374 7.73744L18.2626 5.26257L2.26256 21.2626L4.73744 23.7374Z" fill="black"/>
</svg>
