<svg width="24" height="25" viewBox="0 0 24 25" fill="none" xmlns="http://www.w3.org/2000/svg">
<path d="M19 14C19 15.4834 18.5601 16.9334 17.736 18.1668C16.9119 19.4001 15.7406 20.3614 14.3701 20.9291C12.9997 21.4968 11.4917 21.6453 10.0368 21.3559C8.58197 21.0665 7.2456 20.3522 6.1967 19.3033C5.14781 18.2544 4.4335 16.918 4.14411 15.4632C3.85472 14.0083 4.00325 12.5003 4.57091 11.1299C5.13856 9.75943 6.09986 8.58809 7.33323 7.76398C8.5666 6.93987 10.0166 6.5 11.5 6.5H20M20 6.5L17 3.5M20 6.5L17 9.5" stroke="black" stroke-width="3" stroke-linecap="round" stroke-linejoin="round"/>
</svg>
