<svg width="29" height="29" viewBox="0 0 29 29" fill="none" xmlns="http://www.w3.org/2000/svg">
<path d="M27.1694 11.2401C26.6813 10.73 26.1764 10.2044 25.9861 9.74219C25.81 9.31884 25.7996 8.61714 25.7893 7.93745C25.7699 6.67388 25.7491 5.24201 24.7536 4.24643C23.758 3.25085 22.3261 3.23013 21.0625 3.21071C20.3829 3.20036 19.6812 3.19 19.2578 3.01393C18.7969 2.82362 18.27 2.31871 17.7599 1.83062C16.8666 0.972277 15.8516 0 14.5 0C13.1484 0 12.1347 0.972277 11.2401 1.83062C10.73 2.31871 10.2044 2.82362 9.74219 3.01393C9.32143 3.19 8.61714 3.20036 7.93745 3.21071C6.67388 3.23013 5.24201 3.25085 4.24643 4.24643C3.25085 5.24201 3.23661 6.67388 3.21071 7.93745C3.20036 8.61714 3.19 9.31884 3.01393 9.74219C2.82362 10.2031 2.31871 10.73 1.83062 11.2401C0.972277 12.1334 0 13.1484 0 14.5C0 15.8516 0.972277 16.8653 1.83062 17.7599C2.31871 18.27 2.82362 18.7956 3.01393 19.2578C3.19 19.6812 3.20036 20.3829 3.21071 21.0625C3.23013 22.3261 3.25085 23.758 4.24643 24.7536C5.24201 25.7491 6.67388 25.7699 7.93745 25.7893C8.61714 25.7996 9.31884 25.81 9.74219 25.9861C10.2031 26.1764 10.73 26.6813 11.2401 27.1694C12.1334 28.0277 13.1484 29 14.5 29C15.8516 29 16.8653 28.0277 17.7599 27.1694C18.27 26.6813 18.7956 26.1764 19.2578 25.9861C19.6812 25.81 20.3829 25.7996 21.0625 25.7893C22.3261 25.7699 23.758 25.7491 24.7536 24.7536C25.7491 23.758 25.7699 22.3261 25.7893 21.0625C25.7996 20.3829 25.81 19.6812 25.9861 19.2578C26.1764 18.7969 26.6813 18.27 27.1694 17.7599C28.0277 16.8666 29 15.8516 29 14.5C29 13.1484 28.0277 12.1347 27.1694 11.2401Z" fill="white"/>
<path d="M8.7 15.66L11.7848 18.7448C12.0054 18.9654 12.361 18.9719 12.5896 18.7597L20.3 11.6" stroke="#FF7A00" stroke-width="2.32" stroke-linecap="round"/>
</svg>
