<svg width="32" height="27" viewBox="0 0 32 27" fill="none" xmlns="http://www.w3.org/2000/svg">
<path d="M2.24667 0.700005C1.9072 0.700005 1.58162 0.834862 1.34158 1.07491C1.10153 1.31495 0.966675 1.64053 0.966675 1.98C0.966675 2.31948 1.10153 2.64505 1.34158 2.8851C1.58162 3.12514 1.9072 3.26 2.24667 3.26H5.08827L8.44698 16.7C8.73242 17.8392 9.75258 18.62 10.9263 18.62H25.6079C26.7637 18.62 27.7455 17.852 28.0489 16.7384L31.3666 4.54H9.92666L10.5667 7.09999H28.0463L25.6066 16.06H10.9251L7.56762 2.62C7.42893 2.06862 7.10922 1.57972 6.65969 1.23161C6.21016 0.883492 5.65682 0.696299 5.08827 0.700005H2.24667ZM24.0066 18.62C21.901 18.62 20.1666 20.3544 20.1666 22.46C20.1666 24.5656 21.901 26.2999 24.0066 26.2999C26.1122 26.2999 27.8466 24.5656 27.8466 22.46C27.8466 20.3544 26.1122 18.62 24.0066 18.62ZM12.4867 18.62C10.3811 18.62 8.64666 20.3544 8.64666 22.46C8.64666 24.5656 10.3811 26.2999 12.4867 26.2999C14.5922 26.2999 16.3266 24.5656 16.3266 22.46C16.3266 20.3544 14.5922 18.62 12.4867 18.62ZM12.4867 21.18C13.2086 21.18 13.7666 21.738 13.7666 22.46C13.7666 23.1819 13.2086 23.74 12.4867 23.74C11.7647 23.74 11.2067 23.1819 11.2067 22.46C11.2067 21.738 11.7647 21.18 12.4867 21.18ZM24.0066 21.18C24.7285 21.18 25.2866 21.738 25.2866 22.46C25.2866 23.1819 24.7285 23.74 24.0066 23.74C23.2847 23.74 22.7266 23.1819 22.7266 22.46C22.7266 21.738 23.2847 21.18 24.0066 21.18Z" fill="#1E1E1E"/>
</svg>
