<svg width="32" height="32" viewBox="0 0 32 32" fill="none" xmlns="http://www.w3.org/2000/svg">
<path d="M2.28 3.00005C1.94052 3.00005 1.61495 3.13491 1.3749 3.37496C1.13486 3.615 1 3.94057 1 4.28005C1 4.61953 1.13486 4.9451 1.3749 5.18515C1.61495 5.42519 1.94052 5.56005 2.28 5.56005H5.12159L8.48031 19C8.76574 20.1392 9.7859 20.92 10.9597 20.92H25.6412C26.7971 20.92 27.7788 20.152 28.0822 19.0384L31.3999 6.84005H9.95998L10.6 9.40004H28.0796L25.64 18.36H10.9584L7.60095 4.92005C7.46226 4.36866 7.14255 3.87977 6.69302 3.53165C6.24349 3.18354 5.69014 2.99635 5.12159 3.00005H2.28ZM24.04 20.92C21.9344 20.92 20.2 22.6544 20.2 24.76C20.2 26.8656 21.9344 28.6 24.04 28.6C26.1455 28.6 27.8799 26.8656 27.8799 24.76C27.8799 22.6544 26.1455 20.92 24.04 20.92ZM12.52 20.92C10.4144 20.92 8.67999 22.6544 8.67999 24.76C8.67999 26.8656 10.4144 28.6 12.52 28.6C14.6256 28.6 16.36 26.8656 16.36 24.76C16.36 22.6544 14.6256 20.92 12.52 20.92ZM12.52 23.48C13.2419 23.48 13.8 24.0381 13.8 24.76C13.8 25.4819 13.2419 26.04 12.52 26.04C11.7981 26.04 11.24 25.4819 11.24 24.76C11.24 24.0381 11.7981 23.48 12.52 23.48ZM24.04 23.48C24.7619 23.48 25.32 24.0381 25.32 24.76C25.32 25.4819 24.7619 26.04 24.04 26.04C23.318 26.04 22.76 25.4819 22.76 24.76C22.76 24.0381 23.318 23.48 24.04 23.48Z" fill="white"/>
</svg>
