<svg width="33" height="32" viewBox="0 0 33 32" fill="none" xmlns="http://www.w3.org/2000/svg">
<circle cx="16.7778" cy="16" r="15.36" fill="#2F2F35" stroke="white" stroke-width="1.28"/>
<path fill-rule="evenodd" clip-rule="evenodd" d="M16.6425 16.5895C19.4562 16.5895 21.7372 14.3085 21.7372 11.4947C21.7372 8.68099 19.4562 6.4 16.6425 6.4C13.8287 6.4 11.5477 8.68099 11.5477 11.4947C11.5477 14.3085 13.8287 16.5895 16.6425 16.5895ZM24.3496 23.2834C24.8397 24.6875 23.5919 25.9259 22.1047 25.9259H16.7779H11.451C9.96389 25.9259 8.71612 24.6875 9.20617 23.2834C9.60022 22.1544 10.2455 21.1169 11.1072 20.2552C12.6112 18.7513 14.651 17.9064 16.7779 17.9064C18.9048 17.9064 20.9446 18.7513 22.4486 20.2552C23.3102 21.1169 23.9556 22.1544 24.3496 23.2834Z" fill="white"/>
</svg>
