<svg width="20" height="20" viewBox="0 0 20 20" fill="none" xmlns="http://www.w3.org/2000/svg">
<path d="M20 11.3C20 12.5 19.7895 13.6 19.2632 14.7C18.7368 15.8 18 16.7 17.0526 17.6C16.1053 18.4 15.0526 19.1 13.7895 19.5C13.2632 19.7 12.6316 19.9 12 20L12.3158 19.9C12.3158 19.9 14.6316 18.6 15.1579 15.8C15.3684 13.3 13.1579 12.2 13.1579 12.2C13.1579 12.2 12 13.6 10.4211 13.6C7.89474 13.6 8.31579 9.6 8.31579 9.6C8.31579 9.6 4.52632 11.5 4.52632 15.5C4.52632 18 7.26316 19.9 7.26316 19.9C6.94737 19.8 6.52632 19.7 6.21053 19.6C4.94737 19.2 3.89474 18.5 2.94737 17.7C2 16.9 1.26316 15.9 0.736842 14.8C0.210526 13.7 0 12.6 0 11.4C0 7.5 4.84211 3.7 4.84211 3.7C4.84211 3.7 5.26316 6.7 7.68421 6.7C12.1053 6.7 10.5263 0 10.5263 0C10.5263 0 14.5263 2.2 15.6842 8.2C17.8947 7.9 17.6842 5.2 17.6842 5.2C17.6842 5.2 20 8.1 20 11.3Z" fill="black"/>
</svg>
