<svg width="29" height="29" viewBox="0 0 29 29" fill="none" xmlns="http://www.w3.org/2000/svg">
<path d="M6.44444 29V25.7778H12.8889V20.7833C11.5731 20.488 10.3986 19.9311 9.36539 19.1126C8.33213 18.2942 7.5733 17.2668 7.08889 16.0306C5.075 15.7889 3.39031 14.9098 2.03483 13.3932C0.679352 11.8766 0.00107407 10.0974 0 8.05556V6.44444C0 5.55833 0.315778 4.80004 0.947333 4.16956C1.57889 3.53907 2.33718 3.2233 3.22222 3.22222H6.44444V0H22.5556V3.22222H25.7778C26.6639 3.22222 27.4227 3.538 28.0543 4.16956C28.6858 4.80111 29.0011 5.55941 29 6.44444V8.05556C29 10.0963 28.3217 11.8755 26.9652 13.3932C25.6086 14.9108 23.9239 15.79 21.9111 16.0306C21.4278 17.2657 20.6695 18.2931 19.6362 19.1126C18.603 19.9321 17.4279 20.489 16.1111 20.7833V25.7778H22.5556V29H6.44444ZM6.44444 12.5667V6.44444H3.22222V8.05556C3.22222 9.07593 3.51759 9.99587 4.10833 10.8154C4.69907 11.6349 5.47778 12.2187 6.44444 12.5667ZM14.5 17.7222C15.8426 17.7222 16.9838 17.2523 17.9236 16.3125C18.8634 15.3727 19.3333 14.2315 19.3333 12.8889V3.22222H9.66667V12.8889C9.66667 14.2315 10.1366 15.3727 11.0764 16.3125C12.0162 17.2523 13.1574 17.7222 14.5 17.7222ZM22.5556 12.5667C23.5222 12.2176 24.3009 11.6333 24.8917 10.8138C25.4824 9.99426 25.7778 9.07485 25.7778 8.05556V6.44444H22.5556V12.5667Z" fill="white"/>
</svg>
