<svg width="18" height="19" viewBox="0 0 18 19" fill="none" xmlns="http://www.w3.org/2000/svg">
<path d="M3.06066 17.6857C2.47487 18.2714 1.52513 18.2714 0.93934 17.6857C0.353553 17.0999 0.353553 16.1501 0.93934 15.5643L3.06066 17.6857ZM16.25 0.875C17.0784 0.875 17.75 1.54657 17.75 2.375L17.75 15.875C17.75 16.7034 17.0784 17.375 16.25 17.375C15.4216 17.375 14.75 16.7034 14.75 15.875V3.875H2.75C1.92157 3.875 1.25 3.20343 1.25 2.375C1.25 1.54657 1.92157 0.874999 2.75 0.874999L16.25 0.875ZM0.93934 15.5643L15.1893 1.31434L17.3107 3.43566L3.06066 17.6857L0.93934 15.5643Z" fill="black"/>
</svg>
