<svg width="30" height="30" viewBox="0 0 30 30" fill="none" xmlns="http://www.w3.org/2000/svg">
<path d="M6.83719 7.51877V23.1613C6.83702 23.608 6.92489 24.0503 7.09576 24.4631C7.26663 24.8758 7.51716 25.2508 7.83302 25.5667C8.14889 25.8825 8.52391 26.1331 8.93664 26.3039C9.34937 26.4748 9.79173 26.5627 10.2384 26.5625H19.7609C20.6627 26.5625 21.5275 26.2043 22.1651 25.5667C22.8027 24.9291 23.1609 24.0643 23.1609 23.1625V7.51752M4.11719 7.51877H25.8822" stroke="#F33C52" stroke-width="1.875" stroke-linecap="round" stroke-linejoin="round"/>
<path d="M10.9185 7.51875V5.4775C10.9185 5.2095 10.9713 4.94412 11.0739 4.69654C11.1765 4.44895 11.3268 4.22401 11.5164 4.03456C11.706 3.84511 11.931 3.69487 12.1786 3.59243C12.4263 3.48998 12.6917 3.43734 12.9597 3.4375H17.0397C17.3077 3.43734 17.5731 3.48998 17.8208 3.59243C18.0684 3.69487 18.2934 3.84511 18.483 4.03456C18.6726 4.22401 18.823 4.44895 18.9256 4.69654C19.0281 4.94412 19.081 5.2095 19.081 5.4775V7.51875" stroke="#F33C52" stroke-width="1.875" stroke-linecap="round" stroke-linejoin="round"/>
</svg>
