<svg width="28" height="28" viewBox="0 0 28 28" fill="none" xmlns="http://www.w3.org/2000/svg">
<path d="M6.38168 7.01752V21.6172C6.38153 22.0341 6.46354 22.447 6.62302 22.8322C6.7825 23.2174 7.01632 23.5674 7.31113 23.8622C7.60594 24.1571 7.95596 24.3909 8.34117 24.5504C8.72639 24.7098 9.13926 24.7918 9.55618 24.7917H18.4439C19.2855 24.7917 20.0926 24.4574 20.6877 23.8622C21.2829 23.2671 21.6172 22.46 21.6172 21.6184V7.01636M3.84302 7.01752H24.157" stroke="white" stroke-width="3" stroke-linecap="round" stroke-linejoin="round"/>
<path d="M10.1907 7.01754V5.11237C10.1907 4.86224 10.24 4.61456 10.3357 4.38348C10.4315 4.1524 10.5718 3.94245 10.7488 3.76563C10.9257 3.58881 11.1357 3.44859 11.3669 3.35297C11.598 3.25736 11.8457 3.20822 12.0958 3.20837H15.9038C16.154 3.20822 16.4017 3.25736 16.6328 3.35297C16.864 3.44859 17.074 3.58881 17.2509 3.76563C17.4279 3.94245 17.5682 4.1524 17.664 4.38348C17.7597 4.61456 17.809 4.86224 17.809 5.11237V7.01754" stroke="white" stroke-width="3" stroke-linecap="round" stroke-linejoin="round"/>
</svg>
